<svg xmlns="http://www.w3.org/2000/svg" xmlns:xlink="http://www.w3.org/1999/xlink"><defs><style>
    .sprite-symbol-usage {display: none;}
    .sprite-symbol-usage:target {display: inline;}
  </style><symbol viewBox="0 0 11.152 10.611" id="comment_ico"><g fill="none" stroke-miterlimit="10"><path d="M10.455 0H.7a.719.719 0 0 0-.7.713v7.319a.654.654 0 0 0 .7.635h.7v1.584c0 .376.282.439.629.277l3.742-1.861h4.684a.654.654 0 0 0 .7-.635V.713a.719.719 0 0 0-.7-.713Z" /><path d="M1.5 1.5v5.667h1.394V8.42l2.525-1.253h4.233V1.5H1.5M.697 0h9.758c.383 0 .697.339.697.713v7.319c0 .375-.314.635-.697.635H5.77l-3.748 1.86c-.347.163-.63.1-.63-.276V8.667H.698c-.383 0-.697-.26-.697-.635V.713C0 .34.314 0 .697 0Z" fill="#889099" /></g></symbol><symbol viewBox="0 0 60 60" id="list_ico_1"><g fill="none" stroke-miterlimit="10"><path d="M45.063 33.119v-7.684a15.143 15.143 0 0 0-9.533-14.062 19.764 19.764 0 0 0-5.821-1.143 17.124 17.124 0 0 0-5.558 1.143 14.91 14.91 0 0 0-9.533 14.072v7.674l-3.928 8.042a1.864 1.864 0 0 0 1.673 2.684h11.5v.185a5.973 5.973 0 0 0 11.947 0v-.182h11.508a1.864 1.864 0 0 0 1.673-2.684Z" /><path d="M29.836 48a3.978 3.978 0 0 0 3.973-3.973v-2.182H47.1l-4.036-8.264v-8.145c0-2.64-.783-5.188-2.264-7.373a13.094 13.094 0 0 0-5.987-4.823c-.786-.29-3.167-1.01-5.103-1.01-2.3 0-4.784.987-4.806.996l-.03.012a12.852 12.852 0 0 0-6.034 4.801 12.852 12.852 0 0 0-2.221 7.383V33.581l-4.036 8.264h13.28v2.182A3.978 3.978 0 0 0 29.836 48m0 2a5.973 5.973 0 0 1-5.974-5.973v-.182h-11.5a1.864 1.864 0 0 1-1.672-2.684l3.928-8.042v-7.674a14.91 14.91 0 0 1 9.533-14.072s2.817-1.143 5.558-1.143c2.741 0 5.82 1.143 5.82 1.143a15.143 15.143 0 0 1 9.534 14.062v7.684l3.928 8.042a1.864 1.864 0 0 1-1.673 2.684H35.81v.182c0 3.299-2.674 5.973-5.973 5.973Z" fill="#46b843" /></g><path data-name="Line Copy" d="M15.357 43.268h28.572" fill="none" stroke="#46b843" stroke-linecap="square" stroke-miterlimit="10" stroke-width="2" /></symbol><symbol viewBox="0 0 60 60" id="list_ico_2"><g transform="translate(9.5 10)" fill="none" stroke-miterlimit="10"><g data-name="Combined Shape"><path d="M34.46 40a1.3 1.3 0 0 1-1.275-1.265A32.412 32.412 0 0 0 2.135 7.641 1.3 1.3 0 0 1 .87 6.366V1.231A1.231 1.231 0 0 1 2.135 0a39.85 39.85 0 0 1 27 11.718 39.9 39.9 0 0 1 11.712 27.017A1.23 1.23 0 0 1 39.62 40Zm-13.615 0a1.331 1.331 0 0 1-1.292-1.26 18.656 18.656 0 0 0-5.447-12.025A18.616 18.616 0 0 0 2.125 21.26 1.328 1.328 0 0 1 .87 19.966v-5.133a1.213 1.213 0 0 1 1.255-1.222 26.266 26.266 0 0 1 17.387 7.717 26.361 26.361 0 0 1 7.718 17.407A1.216 1.216 0 0 1 26.012 40Z" /><path d="M38.815 38c-.49-9.383-4.411-18.187-11.095-24.868C21.044 6.449 12.247 2.526 2.87 2.033v3.641c8.397.487 16.283 4.033 22.271 10.029 5.99 5.996 9.529 13.894 10.01 22.297h3.664m-13.637 0a24.38 24.38 0 0 0-7.081-15.259c-4.11-4.116-9.489-6.61-15.227-7.078v3.652a20.68 20.68 0 0 1 12.651 5.988A20.71 20.71 0 0 1 21.498 38h3.68m14.442 2h-5.16c-.693 0-1.248-.574-1.276-1.265C32.54 21.89 18.957 8.293 2.134 7.641 1.443 7.613.87 7.056.87 6.366V1.23c0-.69.572-1.253 1.265-1.23 10.522.332 20.03 4.74 27 11.717 6.967 6.965 11.382 16.49 11.712 27.017A1.23 1.23 0 0 1 39.62 40Zm-13.608 0h-5.167c-.69 0-1.248-.574-1.293-1.26-.302-4.547-2.21-8.797-5.447-12.025a18.616 18.616 0 0 0-11.98-5.455C1.437 21.213.87 20.656.87 19.966v-5.133c0-.692.567-1.252 1.255-1.222 6.777.317 12.89 3.212 17.387 7.717 4.51 4.513 7.393 10.63 7.718 17.407A1.216 1.216 0 0 1 26.012 40Z" fill="#46b843" /></g><circle data-name="Oval 3" cx="5.217" cy="5.217" r="5.217" transform="translate(0 29.565)" stroke="#46b843" stroke-width="2" /></g></symbol><symbol viewBox="0 0 20.414 20.414" id="search_ico"><g transform="translate(1 1)" fill="none" stroke="#22252e" stroke-linecap="round" stroke-linejoin="round" stroke-miterlimit="10" stroke-width="2"><circle cx="7.5" cy="7.5" r="7.5" /><path d="m18 18-5.2-5.2" /></g></symbol></defs><use id="comment_ico-usage" xlink:href="#comment_ico" class="sprite-symbol-usage" /><use id="list_ico_1-usage" xlink:href="#list_ico_1" class="sprite-symbol-usage" /><use id="list_ico_2-usage" xlink:href="#list_ico_2" class="sprite-symbol-usage" /><use id="search_ico-usage" xlink:href="#search_ico" class="sprite-symbol-usage" /></svg>